<svg viewBox="0 0 241 137" fill="none" xmlns="http://www.w3.org/2000/svg">
<g clip-path="url(#clip0_37_2)">
<path d="M98.5828 35.503C98.686 35.4925 98.7333 35.4908 98.9413 35.4595C99.7094 35.3376 100.402 34.9277 100.879 34.3133C102.253 32.6719 103.613 31.02 105.005 29.3994C106.372 27.7545 107.766 26.1444 109.165 24.5397C110.572 22.9383 111.967 21.3406 113.401 19.7793C114.839 18.2285 116.274 16.683 117.744 15.1899C119.2 13.6844 120.718 12.2611 122.241 10.9039C123.685 9.58482 125.238 8.39145 126.885 7.33677C127.508 6.91956 128.201 6.61817 128.931 6.44709L129.092 6.6895C146.612 35.0771 181.023 46.9961 181.023 46.9961C181.023 46.9961 169.103 40.3671 148.926 19.4064L145.992 16.376L141.549 11.729C140.085 10.1697 138.633 8.61181 137.241 7.04369C136.549 6.26226 135.878 5.47193 135.267 4.70098C134.963 4.31551 134.681 3.9264 134.462 3.60027C134.405 3.5147 134.354 3.43627 134.323 3.37872C134.323 3.37872 134.279 3.29879 134.258 3.25695L134.309 3.40495L134.254 3.25313L134.251 3.24289L134.258 3.25695L134.251 3.23753C134.244 3.22753 134.246 3.23231 134.249 3.23935L134.169 3.01947L134.037 2.73159C133.947 2.54675 133.848 2.38972 133.75 2.22742C133.359 1.65057 132.856 1.15854 132.271 0.780847C131.686 0.403151 131.03 0.147569 130.343 0.0294204C129.386 -0.123258 128.408 -0.0864631 127.465 0.13772C126.109 0.477082 124.809 1.00617 123.601 1.7093C121.573 2.91783 119.654 4.30176 117.867 5.84522C116.131 7.31398 114.507 8.85606 112.943 10.4277C111.361 11.9871 109.86 13.6042 108.386 15.2387C106.925 16.8767 105.474 18.5216 104.081 20.2014C102.69 21.8847 101.305 23.5751 99.9572 25.2846C99.1399 26.3136 96.8562 29.3383 96.8562 29.3383C96.68 29.329 96.5007 29.314 96.3189 29.2897C95.6449 29.2066 94.9807 29.0582 94.3355 28.8466C93.6599 28.6261 93.0033 28.3513 92.372 28.0249C91.7135 27.6905 91.0798 27.3092 90.4759 26.8841C89.8467 26.4516 89.247 25.9779 88.6807 25.4659C88.1012 24.9548 87.546 24.3967 86.9996 23.8246C86.4582 23.2453 85.9402 22.6313 85.4389 21.9998C84.9451 21.358 84.4663 20.7004 83.9863 20.0305L83.9893 20.0371L84.0228 20.0967C84.0687 20.1764 84.1091 20.2592 84.1436 20.3445L83.9893 20.0371L83.9393 19.9468C83.8797 19.856 83.8253 19.7723 83.7716 19.7008C83.6638 19.5588 83.5467 19.4242 83.421 19.2978C83.1886 19.0682 82.9295 18.8673 82.6492 18.6995C82.1558 18.4053 81.6083 18.2131 81.0393 18.1343C80.1688 18.0198 79.2839 18.0948 78.4452 18.3542C77.1412 18.7669 75.9047 19.3681 74.7748 20.1387C74.2475 20.4909 73.7332 20.852 73.2454 21.2306C72.7393 21.5987 72.291 22.0121 71.8196 22.4028C70.9096 23.2139 70.0263 24.0373 69.183 24.8903C68.3381 25.738 67.5157 26.6015 66.7249 27.4858C65.9341 28.3756 65.1768 29.2842 64.4207 30.1984C62.9107 32.016 61.6197 33.5441 60.2532 35.4594L62.7974 33.5161L65.4701 31.2311C66.3667 30.4844 67.2649 29.7379 68.1846 29.0244C69.0857 28.2935 69.998 27.5783 70.9259 26.8964C71.8475 26.209 72.7918 25.5671 73.7399 24.9513C74.6988 24.3582 75.6483 23.7791 76.6102 23.2994C77.5236 22.813 78.4757 22.4029 79.4566 22.0731C79.5813 22.0323 79.7163 22.0358 79.8389 22.0828C79.9614 22.1298 80.0641 22.2175 80.1296 22.3313L80.7911 23.5505L81.5103 24.7437C82.0119 25.527 82.5407 26.3032 83.1131 27.0602C84.2755 28.6083 85.6131 30.0166 87.0991 31.2572C88.6522 32.5733 90.4055 33.6327 92.2929 34.3954C93.2787 34.7929 94.3008 35.0938 95.3447 35.2937C95.8877 35.398 96.4363 35.4702 96.9878 35.51C97.2669 35.5292 97.5565 35.5362 97.8568 35.5344L98.5828 35.503Z" fill="currentColor"></path>
<path d="M71.9813 52.3716C75.7407 52.2441 79.4415 53.3281 82.538 55.4636C85.6345 57.5991 87.9629 60.6731 89.1798 64.2323C89.6749 63.7943 90.0172 63.2097 90.1569 62.5637C90.4603 61.3181 90.5534 57.7461 86.4955 54.829C82.5877 52.0201 77.382 50.7817 71.8718 50.7817C58.6601 50.7817 47.9497 57.7472 47.9497 70.7801C47.9497 83.8131 58.6601 90.7786 71.8718 90.7786C77.382 90.7786 82.5878 89.5402 86.4955 86.7313C90.5534 83.8142 90.4603 80.2423 90.1569 78.9967C90.0172 78.3506 89.6749 77.766 89.1798 77.328C87.9629 80.8872 85.6345 83.9612 82.538 86.0967C79.4415 88.2322 75.7407 89.3162 71.9813 89.1887C61.8143 89.1887 53.5725 82.777 53.5725 70.7801C53.5725 58.7833 61.8143 52.3716 71.9813 52.3716Z" fill="currentColor"></path>
<path d="M156.478 50.9602H151.554V90.5934L154.02 90.59L154.013 90.5934H187.002V83.8446C187.002 83.8446 180.357 89.0232 156.478 89.185L156.478 50.9602Z" fill="currentColor"></path>
<path d="M103.787 80.4082L97.4927 90.6246H102.384C102.384 90.6246 105.942 81.7798 108.391 77.4009L119.442 76.0915L131.347 77.5031L138.805 90.612H144.347L121.93 50.9602L103.787 80.4082ZM130.572 76.1658L119.343 72.6622L109.289 75.7966L109.29 75.7936L109.297 75.7825L109.328 75.7261C109.352 75.6832 109.391 75.6132 109.454 75.5009C109.481 75.4538 109.509 75.4036 109.535 75.3559C109.609 75.2247 109.704 75.0544 109.828 74.8333C109.88 74.7387 109.935 74.641 109.989 74.5449C110.132 74.2891 110.304 73.9813 110.512 73.6102L110.563 73.5183C110.66 73.3451 110.766 73.1572 110.877 72.9567C110.934 72.8556 110.991 72.7548 111.048 72.6527C111.115 72.5314 111.186 72.4055 111.259 72.2748C111.383 72.0536 111.507 71.8314 111.633 71.6066C111.658 71.5602 111.685 71.5127 111.712 71.4652C111.872 71.1782 112.034 70.8888 112.197 70.5973C112.309 70.3965 112.426 70.1889 112.547 69.9722C112.624 69.8352 112.701 69.6973 112.778 69.5599C113.017 69.1322 113.273 68.6744 113.546 68.1865C113.604 68.0814 113.663 67.9765 113.722 67.8718C115.662 64.3695 117.782 60.9707 120.076 57.689L130.613 76.2112L130.572 76.1658Z" fill="currentColor"></path>
<path d="M218.646 50.9602L200.503 80.4082L194.209 90.6246H199.1C199.1 90.6246 202.658 81.7798 205.108 77.4009L216.158 76.0915L228.064 77.5031L235.522 90.612H241.063L218.646 50.9602ZM227.288 76.1658L216.06 72.6622L206.005 75.7966C207.012 73.9968 208.238 71.8052 209.494 69.5599C209.733 69.1322 209.989 68.6744 210.262 68.1865C210.321 68.0814 210.38 67.9765 210.438 67.8718C212.378 64.3695 214.499 60.9706 216.792 57.689L227.329 76.2114L227.288 76.1658Z" fill="currentColor"></path>
<path d="M14.6625 66.1698C5.78712 64.4842 5.35818 60.6945 5.35818 59.7764C5.35818 58.9727 5.17483 52.3792 20.1041 52.3792C35.0331 52.3792 38.2022 64.2298 38.2022 64.2298C45.0894 52.9153 24.0678 50.7839 20.1041 50.7839C12.4421 50.7839 1.51713 53.4245 1.51713 61.4332C1.51713 71.4405 21.8057 72.8429 26.9149 73.8681C32.0249 74.8932 37.572 77.7107 37.572 80.9607C37.572 87.3455 25.946 89.1825 20.0903 89.1825C7.35342 89.1825 3.02234 80.6004 2.01389 78.0414C1.84619 77.5963 1.77389 77.3303 1.77389 77.3303L1.76606 77.344L1.76006 77.3256C1.7418 77.3631 1.73062 77.3984 1.71273 77.4357C-4.97846 88.6571 15.9206 90.7762 19.8719 90.7762V90.7725C19.9487 90.7735 20.0322 90.7762 20.1041 90.7762C25.5331 90.7762 41.2196 90.7762 41.2196 79.3103C41.2197 69.068 23.5382 67.8555 14.6625 66.1698Z" fill="currentColor"></path>
<path d="M60.7601 135.608C47.7176 136.301 38.6238 133.763 33.7215 128.069C29.7205 123.433 29.348 117.462 29.1014 113.511L29.096 113.308L31.4866 110.632C43.3572 108.331 60.4207 97.5059 63.7259 95.3556L63.8099 95.3019C63.8907 95.2545 63.9606 95.1906 64.015 95.1144C64.0695 95.0381 64.1072 94.9513 64.1258 94.8595C64.1425 94.7739 64.141 94.6858 64.1214 94.6008C64.1018 94.5159 64.0645 94.436 64.012 94.3663C63.9037 94.2329 63.7526 94.1411 63.5842 94.1065C63.4159 94.072 63.2408 94.0968 63.0887 94.1769C62.9315 94.2901 45.4241 105.81 32.9901 108.961C36.7103 104.67 40.6234 100.011 44.6292 95.1026C47.0057 94.2189 48.0892 93.3712 48.1395 92.3614C48.1517 92.0252 48.0653 91.6927 47.891 91.4048C47.7167 91.117 47.4621 90.8864 47.1585 90.7413C47.0239 90.6652 46.8657 90.6421 46.7149 90.6764C46.5641 90.7107 46.4315 90.8 46.3431 90.9269L43.8377 93.9776L43.7044 94.0421C25.4842 96.4239 16.2493 99.1896 15.4749 102.493C15.4039 102.779 15.4008 103.076 15.466 103.363C15.5311 103.65 15.6626 103.917 15.8499 104.144C16.0036 104.347 16.1947 104.52 16.4129 104.652L16.4124 104.653C16.5538 104.751 16.7275 104.79 16.8969 104.762C17.0664 104.734 17.2183 104.641 17.3206 104.503C17.373 104.433 17.4103 104.353 17.43 104.268C17.4496 104.183 17.4513 104.095 17.4349 104.009C17.4171 103.918 17.3802 103.832 17.3267 103.756C17.2731 103.68 17.2042 103.617 17.1244 103.569C16.9957 103.487 16.8932 103.369 16.8289 103.231C16.7646 103.092 16.741 102.938 16.7611 102.786C16.9798 101.865 19.4959 98.632 42.5877 95.4982C37.7186 101.398 33.9578 105.831 30.7816 109.418C30.0616 109.546 29.3356 109.637 28.6063 109.69C28.5363 109.438 28.4202 109.202 28.264 108.992C27.5628 107.968 26.7581 108.334 26.6683 108.379C26.4216 108.525 26.2262 108.744 26.1092 109.006C25.9922 109.268 25.9593 109.56 26.015 109.841C26.1052 110.187 26.3084 110.493 26.5924 110.71C26.8763 110.927 27.2248 111.044 27.5824 111.04C27.6638 111.642 27.7033 112.25 27.7005 112.858C15.3206 126.508 11.1111 128.548 9.70388 128.548C9.60573 128.55 9.50922 128.574 9.42104 128.617C9.33286 128.66 9.2551 128.722 9.19313 128.798C9.13935 128.858 9.09901 128.929 9.07484 129.005C9.05067 129.082 9.04322 129.163 9.053 129.243C9.05337 129.329 9.07058 129.413 9.10367 129.492C9.13675 129.571 9.18505 129.643 9.24581 129.703C9.30657 129.763 9.3786 129.811 9.45778 129.843C9.53697 129.876 9.62175 129.892 9.70729 129.892C12.5593 129.841 18.6565 124.734 27.8347 114.706C28.3367 121.765 29.9861 137.052 56.6941 137.052C58.0066 137.052 59.3997 137.002 60.8206 136.904C60.9925 136.904 61.1572 136.835 61.2786 136.714C61.4 136.592 61.4681 136.427 61.468 136.255C61.4561 136.077 61.3758 135.91 61.2439 135.789C61.112 135.669 60.9387 135.604 60.7601 135.608ZM28.8738 110.974C28.9431 110.968 29.0139 110.962 29.0852 110.956C29.1961 110.948 29.3089 110.94 29.4221 110.928L28.928 111.484C28.9148 111.307 28.8953 111.137 28.8738 110.974Z" fill="currentColor"></path>
<path d="M76.9882 103.186L76.6367 102.623L76.774 102.552C88.3732 101.78 90.3394 101.64 90.8337 102.552C90.911 102.697 91.0412 102.808 91.1975 102.86C91.3538 102.913 91.5242 102.904 91.6739 102.835C91.7443 102.794 91.8059 102.74 91.855 102.676C91.9041 102.611 91.9397 102.537 91.9597 102.458C91.9797 102.38 91.9836 102.298 91.9713 102.218C91.959 102.138 91.9307 102.061 91.8881 101.992C91.0423 100.303 89.9879 100.374 76.6367 101.357C76.3889 101.347 76.1426 101.4 75.9208 101.511C75.699 101.622 75.5089 101.787 75.3681 101.992C75.088 102.552 75.4394 103.115 75.9338 103.818C77.0541 105.715 79.1631 109.019 72.4188 114.079C72.3497 113.924 72.255 113.781 72.1387 113.657C71.2629 112.584 68.4006 112.159 64.228 115.06C64.2139 115.063 64.2004 115.06 64.1862 115.063C62.923 115.626 51.6809 118.929 46.8314 118.506C46.5458 118.506 46.4085 118.435 46.2657 118.435C46.4799 118.086 47.3201 117.1 51.3294 114.783C51.538 114.711 52.0982 114.431 51.7468 113.868C51.538 113.445 51.2579 113.516 50.9064 113.657L50.2035 113.937C50.1739 113.617 50.0785 113.306 49.9234 113.025C48.8689 111.548 45.7055 111.196 41.2075 114.008C38.1155 115.906 36.4954 117.734 36.5667 118.858C36.5836 119.052 36.6508 119.238 36.7615 119.398C36.8722 119.559 37.0228 119.687 37.1983 119.772C37.4755 119.835 37.7603 119.858 38.0441 119.841C39.6588 119.841 42.5421 118.786 45.2826 117.663C45.1643 117.809 45.0781 117.979 45.0299 118.16C44.9816 118.342 44.9723 118.532 45.0025 118.718C45.1398 119.349 45.7055 119.701 46.7599 119.772C50.4839 120.081 57.475 118.451 61.5824 117.26C60.9548 117.962 60.7293 118.541 60.891 119.069C60.9624 119.281 61.2425 119.841 62.297 119.841C64.2632 119.841 68.6952 118.577 72.2761 115.765C72.3475 115.694 72.3475 115.694 72.3475 115.626C81.0633 109.581 78.3228 105.292 76.9882 103.186ZM37.8354 118.646C38.0441 118.155 38.9558 116.889 41.8392 115.063C45.9856 112.462 48.3747 113.025 48.8689 113.728C49.0776 114.079 48.9349 114.431 48.5834 114.783C42.262 117.803 38.8844 118.718 37.8354 118.646ZM71.0129 114.991L70.8701 115.202C67.7066 117.451 63.9831 118.646 62.297 118.646H62.1542C62.2256 118.366 62.7199 117.734 64.3345 116.469C68.0582 113.728 70.6614 113.797 71.1502 114.431C71.2215 114.5 71.3644 114.64 71.0129 114.991Z" fill="currentColor"></path>
<path d="M232.199 115.486C232.178 115.406 232.141 115.331 232.09 115.266C232.039 115.201 231.975 115.147 231.903 115.107C231.83 115.068 231.751 115.044 231.668 115.036C231.586 115.028 231.503 115.037 231.425 115.063C230.161 115.626 218.919 118.929 214.07 118.506C213.784 118.506 213.647 118.435 213.504 118.435C213.718 118.086 214.559 117.1 218.568 114.783C218.776 114.711 219.337 114.431 218.985 113.868C218.776 113.445 218.496 113.517 218.145 113.657L217.442 113.937C217.412 113.617 217.317 113.306 217.162 113.025C216.107 111.548 212.944 111.196 208.446 114.008C207.841 114.379 207.31 114.746 206.819 115.107C205.434 115.509 194.172 118.506 189.531 118.506C189.394 118.506 188.971 118.506 188.9 118.366C188.836 117.793 188.986 117.217 189.323 116.749C189.447 116.541 189.501 116.299 189.476 116.059C189.451 115.818 189.349 115.592 189.185 115.414L188.9 115.203C190.729 114.431 192.135 113.937 192.629 114.08C192.605 114.167 192.599 114.258 192.61 114.348C192.622 114.438 192.652 114.525 192.697 114.603C192.743 114.682 192.803 114.75 192.875 114.805C192.947 114.86 193.03 114.9 193.118 114.923C193.266 114.949 193.419 114.92 193.548 114.842C193.677 114.765 193.774 114.643 193.821 114.5C193.905 114.256 193.916 113.994 193.854 113.745C193.791 113.495 193.658 113.269 193.469 113.094C192.486 112.391 189.603 113.445 186.862 114.783L188.482 113.165C188.583 113.048 188.639 112.898 188.639 112.744C188.639 112.589 188.583 112.439 188.482 112.322C188.426 112.256 188.356 112.202 188.276 112.166C188.197 112.129 188.111 112.11 188.024 112.11C187.936 112.11 187.85 112.129 187.771 112.166C187.692 112.202 187.622 112.256 187.565 112.322C186.358 113.509 185.29 114.581 184.389 115.502C180.987 116.503 172.321 118.843 168.513 118.506C168.301 118.5 168.09 118.476 167.882 118.435C167.953 118.155 168.37 117.523 170.128 116.186H170.199C170.236 116.184 170.271 116.169 170.297 116.143C170.324 116.117 170.339 116.083 170.342 116.046C170.902 115.694 171.534 115.203 172.38 114.64C173.22 114.148 173.506 113.937 173.291 113.445C173.239 113.31 173.138 113.199 173.008 113.134C172.878 113.069 172.728 113.054 172.588 113.094C172.516 113.093 172.445 113.113 172.383 113.15C172.321 113.187 172.27 113.241 172.237 113.305L171.748 113.657C170.974 114.148 170.199 114.64 169.568 115.134C169.008 115.414 166.619 115.414 164.224 115.203L166.053 113.728C166.188 113.622 166.277 113.468 166.304 113.299C166.33 113.129 166.292 112.956 166.196 112.814C166.081 112.687 165.922 112.609 165.751 112.596C165.581 112.582 165.412 112.635 165.278 112.742L162.493 115.058C162.46 115.058 162.428 115.059 162.395 115.063C162.324 115.134 149.884 118.929 145.035 118.506C144.845 118.497 144.656 118.473 144.469 118.435C144.54 118.015 145.315 117.1 148.967 114.64C149.813 114.148 150.164 113.868 149.884 113.377C149.533 112.814 149.11 113.025 148.407 113.445C144.892 115.203 137.725 118.786 136.11 118.646C136.248 118.155 137.165 116.889 140.114 115.063C140.536 114.816 140.937 114.534 141.311 114.22L142.014 113.657C142.092 113.624 142.16 113.573 142.215 113.509C142.269 113.445 142.308 113.369 142.329 113.287C142.349 113.206 142.35 113.12 142.332 113.038C142.313 112.956 142.276 112.879 142.223 112.814C142.178 112.747 142.121 112.69 142.053 112.646C141.986 112.602 141.91 112.573 141.83 112.56C141.751 112.547 141.67 112.55 141.592 112.57C141.514 112.589 141.441 112.625 141.377 112.674L140.537 113.237C140.18 113.52 139.804 113.777 139.411 114.008C138.825 114.376 138.306 114.739 137.825 115.097C137.766 115.103 137.709 115.115 137.653 115.134C134.276 116.537 129.712 118.435 124.72 120.332L122.611 121.107L129.075 115.906C129.146 115.835 129.146 115.766 129.218 115.766C129.298 115.68 129.393 115.608 129.498 115.554L130.272 114.851C130.334 114.802 130.386 114.741 130.423 114.671C130.461 114.601 130.483 114.524 130.49 114.445C130.497 114.366 130.487 114.287 130.462 114.212C130.437 114.137 130.396 114.067 130.344 114.008C130.196 113.848 129.995 113.748 129.778 113.728C129.624 113.487 129.402 113.298 129.14 113.185C128.877 113.072 128.587 113.04 128.306 113.094L127.883 113.165C125.541 113.393 123.258 114.034 121.14 115.059C121.114 115.062 121.088 115.057 121.062 115.063C117.267 116.117 114.455 116.749 112.275 117.172C113.385 116.508 114.323 115.592 115.015 114.5C115.256 114.17 115.361 113.76 115.309 113.355C115.257 112.95 115.052 112.581 114.735 112.322C113.823 111.548 111.643 111.548 108.831 112.742C109.075 112.493 109.334 112.258 109.606 112.039C109.718 111.917 109.786 111.761 109.799 111.596C109.812 111.431 109.769 111.266 109.677 111.128C109.554 111.015 109.397 110.947 109.231 110.934C109.065 110.921 108.899 110.964 108.76 111.056C107.342 112.272 105.793 113.627 104.185 115.063C102.922 115.626 91.6796 118.929 86.8301 118.506C86.5445 118.506 86.4072 118.435 86.2644 118.435C86.4786 118.086 87.3189 117.1 91.3281 114.783C91.5368 114.711 92.097 114.431 91.7455 113.868C91.5368 113.445 91.2567 113.517 90.9052 113.657L90.2022 113.937C90.1726 113.617 90.0773 113.307 89.9221 113.025C88.8676 111.548 85.7042 111.196 81.2063 114.008C78.1142 115.906 76.4941 117.735 76.5655 118.858C76.5824 119.052 76.6495 119.238 76.7603 119.399C76.871 119.559 77.0215 119.688 77.197 119.772C77.4743 119.835 77.7591 119.858 78.0429 119.841C79.6575 119.841 82.5408 118.786 85.2813 117.663C85.163 117.809 85.0769 117.979 85.0286 118.161C84.9803 118.342 84.971 118.532 85.0012 118.718C85.1386 119.349 85.7042 119.701 86.7587 119.772C90.5546 120.087 97.7551 118.386 101.826 117.19C93.3972 124.864 84.3121 133.947 84.095 136.778C84.0867 136.858 84.0948 136.938 84.119 137.013C84.1432 137.089 84.1829 137.159 84.2356 137.219C84.2883 137.278 84.3528 137.326 84.4251 137.36C84.4973 137.393 84.5757 137.411 84.6553 137.413C84.823 137.431 84.9911 137.382 85.1228 137.276C85.2545 137.171 85.3391 137.017 85.3582 136.85C85.501 134.881 92.4539 127.574 100.818 119.841C100.873 119.836 100.923 119.812 100.961 119.772C107.705 113.165 112.906 112.462 113.961 113.305C114.032 113.377 114.175 113.445 113.961 113.868C113.049 115.414 110.731 116.82 108.622 117.663L107.002 117.803C105.596 117.943 104.828 118.015 104.125 118.718C104.062 118.77 104.011 118.834 103.975 118.906C103.938 118.978 103.916 119.057 103.91 119.138C103.908 119.231 103.926 119.323 103.963 119.409C104 119.494 104.055 119.57 104.125 119.632C104.404 119.848 104.756 119.948 105.108 119.912L105.739 119.841C106.83 119.679 107.893 119.373 108.903 118.929C112.452 118.489 115.963 117.782 119.405 116.813C119.155 117.445 119.145 118.147 119.376 118.786C119.499 119.107 119.724 119.378 120.018 119.556C120.311 119.734 120.655 119.811 120.996 119.772C121.625 119.745 122.243 119.602 122.819 119.349C121.419 120.475 120.079 121.598 118.744 122.653C109.963 126.096 104.267 128.628 103.213 130.877C103.076 131.297 102.438 132.703 103.284 133.335C103.507 133.507 103.777 133.606 104.059 133.618C105.25 133.618 108.342 132.212 118.041 124.762L119.376 123.707L125.143 121.53C128.862 120.115 132.387 118.66 135.368 117.429C135.028 117.827 134.841 118.334 134.842 118.858C134.844 119.056 134.906 119.248 135.018 119.411C135.131 119.574 135.289 119.7 135.473 119.772C135.68 119.829 135.896 119.852 136.11 119.841C137.373 119.841 139.691 118.998 143.98 116.96C143.715 117.178 143.511 117.461 143.388 117.781C143.265 118.101 143.227 118.447 143.277 118.786C143.42 119.349 143.98 119.701 144.963 119.772C148.609 120.075 155.981 118.225 160.024 117.089L157.831 118.929C157.768 118.978 157.717 119.039 157.679 119.109C157.641 119.179 157.618 119.256 157.611 119.335C157.604 119.414 157.614 119.494 157.64 119.569C157.665 119.645 157.706 119.714 157.76 119.772C157.822 119.841 157.898 119.896 157.984 119.932C158.069 119.969 158.161 119.986 158.254 119.984C158.331 119.993 158.408 119.985 158.482 119.96C158.555 119.935 158.622 119.895 158.677 119.841L162.889 116.329C164.335 116.521 165.792 116.614 167.25 116.609H167.81C166.899 117.452 166.547 118.155 166.684 118.786C166.827 119.349 167.387 119.701 168.37 119.772H169.216C172.831 119.772 178.859 118.305 182.688 117.265C181.715 118.29 181.172 118.896 181.172 118.929C181.118 118.988 181.077 119.056 181.051 119.131C181.025 119.206 181.015 119.286 181.021 119.365C181.027 119.444 181.05 119.521 181.087 119.591C181.124 119.662 181.176 119.723 181.238 119.772C181.281 119.845 181.343 119.904 181.418 119.941C181.493 119.979 181.578 119.993 181.661 119.984C181.742 119.978 181.821 119.957 181.894 119.92C181.966 119.884 182.031 119.834 182.084 119.772C182.084 119.701 182.787 118.998 183.984 117.735C184.46 117.449 184.951 117.19 185.456 116.96C186.288 116.548 187.203 116.332 188.131 116.329C187.845 116.889 187.285 118.086 187.845 118.998C188.026 119.272 188.279 119.489 188.577 119.626C188.875 119.763 189.206 119.814 189.531 119.772C193.252 119.772 200.8 117.951 204.766 116.929C204.22 117.433 203.878 118.119 203.805 118.858C203.822 119.052 203.889 119.238 204 119.399C204.111 119.559 204.261 119.688 204.437 119.772C204.714 119.835 204.999 119.858 205.282 119.841C206.897 119.841 209.78 118.786 212.521 117.663C212.403 117.809 212.316 117.979 212.268 118.161C212.22 118.342 212.211 118.532 212.241 118.718C212.378 119.349 212.944 119.701 213.998 119.772C219.056 120.192 230.161 117.032 231.847 116.257C231.987 116.19 232.098 116.076 232.162 115.935C232.226 115.794 232.239 115.635 232.199 115.486ZM77.8341 118.646C78.0428 118.155 78.9545 116.889 81.8378 115.063C85.9843 112.462 88.3733 113.025 88.8676 113.728C89.0763 114.08 88.9335 114.431 88.582 114.783C82.2607 117.803 78.8831 118.718 77.8341 118.646ZM120.996 118.578C120.573 118.578 120.573 118.435 120.502 118.366C120.418 118.172 120.387 117.959 120.412 117.75C120.437 117.54 120.517 117.34 120.645 117.172C121.133 116.329 122.819 115.134 128.092 114.36L128.586 114.288C128.657 114.288 128.657 114.36 128.723 114.36C128.723 114.431 128.657 114.571 128.443 114.711C127.037 115.766 122.819 118.578 120.996 118.578ZM104.059 132.28C104.127 131.96 104.245 131.652 104.41 131.369C105.042 129.891 109.611 127.642 115.092 125.393C109.611 129.54 105.25 132.423 104.059 132.28ZM205.074 118.646C205.669 117.653 206.484 116.81 207.458 116.182C207.484 116.166 207.509 116.148 207.532 116.128C207.974 115.797 208.474 115.445 209.078 115.063C213.224 112.462 215.613 113.025 216.107 113.728C216.316 114.08 216.173 114.431 215.822 114.783C209.5 117.803 206.123 118.718 205.074 118.646Z" fill="currentColor"></path>
</g>
<defs>
<clipPath id="clip0_37_2">
<rect width="241" height="137" fill="currentColor"></rect>
</clipPath>
</defs>
</svg>